<svg id="visual" viewBox="0 0 900 900" width="900" height="900" xmlns="http://www.w3.org/2000/svg" xmlns:xlink="http://www.w3.org/1999/xlink" version="1.1"><g transform="translate(452.7392147540078 419.65973189894726)"><path d="M95.2 -159.8C114.4 -135.9 114.8 -94.2 128.9 -59.9C143.1 -25.5 171 1.5 191.4 44.6C211.7 87.6 224.5 146.6 202.7 180.6C180.9 214.5 124.6 223.3 69.2 243C13.8 262.7 -40.7 293.3 -78.5 277.5C-116.3 261.7 -137.5 199.6 -146.7 149.3C-156 98.9 -153.2 60.3 -168.7 18.2C-184.3 -23.9 -218.1 -69.5 -219.5 -114.2C-220.8 -158.9 -189.6 -202.7 -147.6 -216.2C-105.6 -229.7 -52.8 -212.8 -7.4 -201.3C38 -189.8 76.1 -183.7 95.2 -159.8" fill="#BB004B"></path></g></svg>